/* XPM */
static char *result[] = {
/* columns rows colors chars-per-pixel */
"64 64 154 2 ",
"   c #412320",
".  c #422421",
"X  c #452522",
"o  c #472623",
"O  c #482724",
"+  c #4B2825",
"@  c #4C2925",
"#  c #4D2A26",
"$  c #4F2A27",
"%  c #442928",
"&  c #512C28",
"*  c #532D29",
"=  c #542E2A",
"-  c #572F2B",
";  c #58302C",
":  c #59302C",
">  c #5A312C",
",  c #5B312D",
"<  c #5E332F",
"1  c #443135",
"2  c #4A3438",
"3  c #4C3739",
"4  c #4A373C",
"5  c #60342F",
"6  c #633631",
"7  c #643631",
"8  c #673833",
"9  c #643B37",
"0  c #683833",
"q  c #693933",
"w  c #693934",
"e  c #6C3A35",
"r  c #6D3B36",
"t  c #713D38",
"y  c #71423D",
"u  c #78413B",
"i  c #4D3A40",
"p  c #4D424D",
"a  c #4B4D5F",
"s  c #654345",
"d  c #6C4A46",
"f  c #62474A",
"g  c #62464B",
"h  c #62474B",
"j  c #694648",
"k  c #6B494D",
"l  c #6A4A4E",
"z  c #754E4A",
"x  c #754F4C",
"c  c #70514D",
"v  c #77514E",
"b  c #79504C",
"n  c #694D50",
"m  c #6E4C50",
"M  c #714F53",
"N  c #6B5255",
"B  c #6F5558",
"V  c #765154",
"C  c #755254",
"Z  c #7B5552",
"A  c #785557",
"S  c #7D5754",
"D  c #434F65",
"F  c #4E5367",
"G  c #465269",
"H  c #49556B",
"J  c #565364",
"K  c #575766",
"L  c #5B5767",
"P  c #58586A",
"I  c #4B5870",
"U  c #4E5B73",
"Y  c #515E76",
"T  c #5B5F74",
"R  c #605C6B",
"E  c #735B60",
"W  c #546077",
"Q  c #566177",
"!  c #546078",
"~  c #566279",
"^  c #58647A",
"/  c #5A667B",
"(  c #59657C",
")  c #5C677D",
"_  c #626170",
"`  c #66657A",
"'  c #63687F",
"]  c #7C777D",
"[  c #824740",
"{  c #8A4C44",
"}  c #8F4E46",
"|  c #9A544C",
" . c #875A5D",
".. c #8F5F61",
"X. c #847876",
"o. c #8D7977",
"O. c #8A7E7D",
"+. c #917B79",
"@. c #5C6A86",
"#. c #646B84",
"$. c #6B6C83",
"%. c #6D6D84",
"&. c #6F6E85",
"*. c #64708C",
"=. c #6C748A",
"-. c #717086",
";. c #7F7A81",
":. c #70738A",
">. c #777389",
",. c #747489",
"<. c #7A748A",
"1. c #79778C",
"2. c #7F7D8B",
"3. c #647391",
"4. c #6E7C97",
"5. c #6F7F9F",
"6. c #747D95",
"7. c #76829A",
"8. c #77839D",
"9. c #77849C",
"0. c #7B869A",
"q. c #7B88A0",
"w. c #7C89A0",
"e. c #7D8BA8",
"r. c #868084",
"t. c #85818F",
"y. c #8E8E8E",
"u. c #978A89",
"i. c #998E8D",
"p. c #9D918F",
"a. c #888797",
"s. c #858991",
"d. c #888C93",
"f. c #8D8A9A",
"g. c #8F9298",
"h. c #8B909F",
"j. c #929292",
"k. c #9A9A9A",
"l. c #9F9F9F",
"z. c #818BA1",
"x. c #838FA5",
"c. c #8390AA",
"v. c #8893A8",
"b. c #8895AF",
"n. c #8896AF",
"m. c #8996AF",
"M. c #8D98AC",
"N. c #959EAF",
"B. c #909CB4",
"V. c #98A4BB",
"C. c #9FA9BF",
"Z. c #A7A7A7",
"A. c gray67",
"S. c None",
/* pixels */
"S.S.S.S.S.S.S.S.S.S.S.S.S.S.S.S.S.S.S.S.S.S.S.S.S.S.S.S.S.S.S.S.S.S.S.S.S.S.S.S.S.S.S.S.S.S.S.S.S.S.S.S.S.S.S.S.S.S.S.S.S.S.S.S.",
"S.S.S.S.S.S.S.S.S.S.S.S.S.S.S.S.S.S.S.S.S.S.S.S.S.S.S.S.S.S.S.S.S.S.S.S.S.S.S.S.S.S.S.S.S.S.S.S.S.S.S.S.S.S.S.S.S.S.S.S.S.S.S.S.",
"S.S.S.S.S.S.S.S.S.S.S.S.S.S.S.S.S.S.S.S.S.S.S.S.S.S.S.S.S.S.S.S.S.S.S.S.S.S.S.S.S.S.S.S.S.S.S.S.S.S.S.S.S.S.S.S.S.S.S.S.S.S.S.S.",
"S.S.S.S.S.S.S.S.S.S.S.S.S.S.S.S.S.S.S.S.S.S.S.S.S.S.S.S.S.S.S.S.S.S.S.S.S.S.S.S.S.S.S.S.S.S.S.S.S.S.S.S.S.S.S.S.S.S.S.S.S.S.S.S.",
"S.S.S.S.S.S.S.S.S.S.S.S.S.S.S.S.S.S.S.S.S.S.S.S.S.S.S.S.S.S.S.S.S.S.S.S.S.S.S.S.S.S.S.S.S.S.S.S.S.S.S.S.S.S.S.S.S.S.S.S.S.S.S.S.",
"S.S.S.S.S.S.S.S.S.S.S.S.S.S.S.S.S.S.S.S.S.S.S.S.S.S.S.S.S.S.S.S.S.S.S.S.S.S.S.S.S.S.S.S.S.S.S.S.S.S.S.S.S.S.S.S.S.S.S.S.S.S.S.S.",
"S.S.S.S.S.S.S.S.S.S.S.S.S.S.S.S.S.S.S.S.S.S.S.S.S.S.S.S.S.S.S.S.S.S.S.S.S.S.S.S.S.S.S.S.S.S.S.S.S.S.S.S.S.S.S.S.S.S.S.S.S.S.S.S.",
"S.S.S.S.S.S.S.S.S.S.S.S.S.S.S.S.S.S.S.S.S.S.S.S.S.S.S.S.S.S.S.S.S.S.S.S.S.S.S.S.S.S.S.S.S.S.S.S.S.S.S.S.S.S.S.S.S.S.S.S.S.S.S.S.",
"S.S.S.S.S.S.S.S.S.S.S.S.S.S.S.S.S.S.S.S.S.S.S.S.S.S.m.n.n.n.n.n.n.n.n.n.n.m.S.S.S.S.S.S.S.S.S.S.S.S.S.S.S.S.S.S.S.S.S.S.S.S.S.S.",
"S.S.S.S.S.S.S.S.S.S.S.S.S.S.S.S.S.S.S.S.S.S.S.S.S.S.n.b.b.b.b.b.b.b.b.b.b.n.S.S.S.S.S.S.S.S.S.S.S.S.S.S.S.S.S.S.S.S.S.S.S.S.S.S.",
"S.S.S.S.S.S.S.S.S.S.S.S.S.S.S.S.S.S.S.S.S.S.S.S.S.S.n.b.b.b.b.b.b.b.b.b.b.n.S.S.S.S.S.S.S.S.S.S.S.S.S.S.S.S.S.S.S.S.S.S.S.S.S.S.",
"S.S.S.S.S.S.S.S.S.S.S.S.S.S.S.S.S.S.S.S.S.S.S.S.S.S.c.b.b.b.b.b.b.b.b.b.b.c.S.S.S.S.S.S.S.S.S.S.S.S.S.S.S.S.S.S.S.S.S.S.S.S.S.S.",
"S.S.S.S.S.S.S.S.S.S.S.S.S.S.m.n.n.n.n.n.n.n.n.9.! ( q.b.b.b.b.b.b.b.b.b.b.q.( ! 9.n.n.n.n.n.n.n.n.m.S.S.S.S.S.S.S.S.S.S.S.S.S.S.",
"S.S.S.S.S.S.S.S.S.S.S.S.S.S.n.b.b.b.b.b.b.b.b.8.W ~ w.B.B.B.B.B.B.B.B.B.B.w.~ W 8.b.b.b.b.b.b.b.b.n.S.S.S.S.S.S.S.S.S.S.S.S.S.S.",
"S.S.S.S.S.S.S.S.S.S.S.S.S.S.n.b.b.b.b.b.b.b.b.8.W / v.C.C.C.C.C.C.C.C.C.C.v./ W 8.b.b.b.b.b.b.b.b.n.S.S.S.S.S.S.S.S.S.S.S.S.S.S.",
"S.S.S.S.S.S.S.S.S.S.S.S.S.S.c.b.b.b.b.b.b.b.b.8.W ^ x.V.V.V.V.V.V.V.V.V.V.x.^ W 8.b.b.b.b.b.b.b.b.c.S.S.S.S.S.S.S.S.S.S.S.S.S.S.",
"D ! 9.n.n.n.n.n.n.n.n.9.! ( q.b.b.b.b.b.b.b.b.8.W Y 4.e.e.e.e.e.e.e.e.e.e.4.Y W 8.b.b.b.b.b.b.b.b.q.( ! 9.n.n.n.n.n.n.n.n.9.! D ",
"D W 8.b.b.b.b.b.b.b.b.8.W ~ w.B.B.B.B.B.B.B.B.w.~ U 3.5.5.5.5.5.5.5.5.5.5.3.U ~ w.B.B.B.B.B.B.B.B.w.~ W 8.b.b.b.b.b.b.b.b.8.W D ",
"D W 8.b.b.b.b.b.b.b.b.8.W / v.C.C.C.C.C.C.C.C.v./ U 3.5.5.5.5.5.5.5.5.5.5.3.U / v.C.C.C.C.C.C.C.C.v./ W 8.b.b.b.b.b.b.b.b.8.W D ",
"D W 8.b.b.b.b.b.b.b.b.8.W ^ x.V.V.V.V.V.V.V.V.x.^ U 3.5.5.5.5.5.5.5.5.5.5.3.U ^ x.V.V.V.V.V.V.V.V.x.^ W 8.b.b.b.b.b.b.b.b.8.W D ",
"D W 8.b.b.b.b.b.b.b.b.8.W Y 4.e.e.e.e.e.e.e.e.4.Y U 3.5.5.5.5.5.5.5.5.5.5.3.U Y 4.e.e.e.e.e.e.e.e.4.Y W 8.b.b.b.b.b.b.b.b.8.W D ",
"D ~ w.B.B.B.B.B.B.B.B.w.~ U 3.5.5.5.5.5.5.5.5.3.U U 3.5.5.5.5.5.5.5.5.5.5.3.U U 3.5.5.5.5.5.5.5.5.3.U ~ w.B.B.B.B.B.B.B.B.w.~ D ",
"D / v.C.C.C.C.C.C.C.C.v./ U 3.5.5.5.5.5.5.5.5.3.U U 3.5.5.5.5.5.5.5.5.5.5.3.U U 3.5.5.5.5.5.5.5.5.3.U / v.C.C.C.C.C.C.C.C.v./ D ",
"D ^ x.V.V.V.V.V.V.V.V.x.^ U 3.5.5.5.5.5.5.5.5.*.F a T ' ' ' ' ' ' ' ' ' ' T a F *.5.5.5.5.5.5.5.5.3.U ^ x.V.V.V.V.V.V.V.V.x.^ D ",
"D Y 4.e.e.e.e.e.e.e.e.4.Y U 3.5.5.5.5.5.5.5.5.#.p 1 4 i i i i i i i i i i 4 1 p #.5.5.5.5.5.5.5.5.3.U Y 4.e.e.e.e.e.e.e.e.4.Y D ",
"D U 3.5.5.5.5.5.5.5.5.*.F a T ' ' ' ' ' ' ' ' L 2                             2 L ' ' ' ' ' ' ' ' T a F *.5.5.5.5.5.5.5.5.3.U D ",
"D U 3.5.5.5.5.5.5.5.5.#.p 1 4 i i i i i i i i 2 %                             % 2 i i i i i i i i 4 1 p #.5.5.5.5.5.5.5.5.3.U D ",
"D U 3.5.5.5.5.5.5.5.5.' i                                                                             i ' 5.5.5.5.5.5.5.5.3.U D ",
"D U 3.5.5.5.5.5.5.5.5.' i                                                                             i ' 5.5.5.5.5.5.5.5.3.U D ",
"D I @.3.3.3.3.3.3.3.3.T 4                     . X X . . X o o o o o o X . . X X .                     4 T 3.3.3.3.3.3.3.3.@.I D ",
"D G I U U U U U U U U a 1                     X $ $ X X $ * * * * * * $ X X $ $ X                     1 a U U U U U U U U I G D ",
"D H Q ) ) ) ) ) ) ) ) K 3 o o o o X . . X o o @ = * o o * : : : : : : * o o * = @ o o X . . X o o o o 3 K ) ) ) ) ) ) ) ) Q H D ",
"D Q 0.M.M.M.M.M.M.M.M.2.f * * * * $ X X $ * * = - * o o * : : : : : : * o o * - = * * $ X X $ * * * * f 2.M.M.M.M.M.M.M.M.0.Q D ",
"D ^ x.V.V.V.V.V.V.V.V.a.n : : : : * o O - < < < < ; # # ; < < < < < < ; # # ; < < < < - O o * : : : : n a.V.V.V.V.V.V.V.V.x.^ D ",
"D Y 4.e.e.e.e.e.e.e.e.,.h : : : : * o + < 0 0 0 0 6 > > 6 0 0 0 0 0 0 6 > > 6 0 0 0 0 < + o * : : : : h ,.e.e.e.e.e.e.e.e.4.Y D ",
"D U 3.5.5.5.5.5.5.5.5.$.g < < < < ; # & 7 r r r r w 5 5 w r r r r r r w 5 5 w r r r r 7 & # ; < < < < g $.5.5.5.5.5.5.5.5.3.U D ",
"D U 3.5.5.5.5.5.5.5.5.%.l 0 0 0 0 6 > , 8 r r r r w 5 5 w r r r r r r w 5 5 w r r r r 8 , > 6 0 0 0 0 l %.5.5.5.5.5.5.5.5.3.U D ",
"D U 3.5.5.5.5.5.5.5.5.:.E x x v Z z 9 5 w r r r r w 5 5 w r r r r r r w 5 5 w r r r r w 5 5 w r r r r m &.5.5.5.5.5.5.5.5.3.U D ",
"D U 3.5.5.5.5.5.5.5.5.6.;.X.X.O.u.o.d 5 w r r r r w 5 5 w r r r r r r w 5 5 w r r r r w 5 5 w r r r r m &.5.5.5.5.5.5.5.5.3.U D ",
"D U 3.5.5.5.5.5.5.5.5.7.s.y.j.k.Z.i.c 5 w r r r r w 5 5 w r r r r r r w 5 5 w r r r r w 5 5 w r r r r m &.5.5.5.5.5.5.5.5.3.U D ",
"D U 3.5.5.5.5.5.5.5.5.7.s.j.l.Z.A.i.c 5 w r r r r w 5 5 w r r r r r r w 5 5 w r r r r w 5 5 w r r r r m &.5.5.5.5.5.5.5.5.3.U D ",
"D I @.3.3.3.3.3.3.3.3.=.] O.u.p.p.o.d 5 w r r r r w 5 5 w r r r r r r w 5 5 w r r r r w 5 5 w r r r r k ` 3.3.3.3.3.3.3.3.@.I D ",
"D G I U U U U U U U U P N v Z S S z 9 5 w r r r r w 5 5 w r r r r r r w 5 5 w r r r r w 5 5 w r r r r s J U U U U U U U U I G D ",
"D H Q ) ) ) ) ) ) ) ) R j r r r r w 5 5 w r r r r w 5 5 w r r r r r r w 5 5 w r r r r w 5 5 w y b b y j R ) ) ) ) ) ) ) ) Q H D ",
"D Q 0.M.M.M.M.M.M.M.M.t.C r r r r w 5 5 w r r r r w 5 5 w r r r r r r w 5 5 w r r r r w 5 5 w b +.+.b C t.M.M.M.M.M.M.M.M.0.Q D ",
"D ^ x.V.V.V.V.V.V.V.V.f.A r r r r w 5 5 w r r r r w 5 5 w r r r r r r w 5 5 w r r r r w 5 5 w S p.p.S A f.V.V.V.V.V.V.V.V.x.^ D ",
"D Y 4.e.e.e.e.e.e.e.e.1.M r r r r w 5 5 w r r r r w 5 5 w r r r r r r w 5 5 w r r r r w 5 5 w S p.p.S M 1.e.e.e.e.e.e.e.e.4.Y D ",
"D U 3.5.5.5.5.5.5.5.5.&.m r r r r w 5 5 w r r r r w 5 5 w r r r r r r w 5 5 w r r r r w 5 5 w S p.p.S m &.5.5.5.5.5.5.5.5.3.U D ",
"D U 3.5.5.5.5.5.5.5.5.&.m r r r r w 5 5 w r r r r w 5 5 w r r r r r r w 5 5 w r r r r w 5 5 w S p.p.S m &.5.5.5.5.5.5.5.5.3.U D ",
"D U 3.5.5.5.5.5.5.5.5.&.m r r r r w 5 5 w r r r r w 5 5 w r r r r r r w 5 5 w r r r r w 5 5 w S p.p.S m &.5.5.5.5.5.5.5.5.3.U D ",
"D U 3.5.5.5.5.5.5.5.5.&.m r r r r w 5 5 w r r r r w 5 5 w r r r r r r w 5 5 w r r r r w 5 5 w S p.p.S m &.5.5.5.5.5.5.5.5.3.U D ",
"D U 3.5.5.5.5.5.5.5.5.&.m r r r r w 5 5 w r r r r w 5 5 w r r r r r r w 5 5 w r r r r w 5 5 w S p.p.S m &.5.5.5.5.5.5.5.5.3.U D ",
"D U 3.5.5.5.5.5.5.5.5.&.m r r r r w 5 5 w r r r r w 5 5 w r r r r r r w 5 5 w r r r r w 5 5 w S p.p.S m &.5.5.5.5.5.5.5.5.3.U D ",
"D I @.3.3.3.3.3.3.3.3.` k r r r r w 5 5 w r r r r w 5 5 w r r r r r r w 5 5 w r r r r w 5 5 w b +.+.b k ` 3.3.3.3.3.3.3.3.@.I D ",
"D G I U U U U U U U U J s r r r r w 5 5 w r r r r w 5 5 w r r r r r r w 5 5 w r r r r w 5 5 w y b b y s J U U U U U U U U I G D ",
"D H Q ) ) ) ) ) ) ) ) _ B x x v Z z 9 5 w r r r r w 5 5 w r r r r r r w 5 5 w r r r r w 5 5 w r r r r j R ) ) ) ) ) ) ) ) Q H D ",
"D Q 0.M.M.M.M.M.M.M.M.h.r.X.X.O.u.o.d 5 w r r r r w 5 5 w r r r r r r w 5 5 w r r r r w 5 5 w r r r r C t.M.M.M.M.M.M.M.M.0.Q D ",
"D ^ x.V.V.V.V.V.V.V.V.N.g.y.j.k.Z.i.c 5 w r r r r w 5 5 w r r r r r r w 5 5 w r r r r w 5 5 w r r r r A f.V.V.V.V.V.V.V.V.x.^ D ",
"D Y 4.e.e.e.e.e.e.e.e.z.d.j.l.Z.A.i.c 5 w r r r r w 5 5 w r r r r r r w 5 5 w r r r r w 5 5 w r r r r M 1.e.e.e.e.e.e.e.e.4.Y D ",
"D U 3.5.5.5.5.5.5.5.5.6.;.O.u.p.p.o.d 5 w r r r r w 5 5 w r r r r r r w 5 5 w r r r r w 5 5 w r r r r m &.5.5.5.5.5.5.5.5.3.U D ",
"D U 3.5.5.5.5.5.5.5.5.:.E v Z S S z 9 5 w r r r r w 5 5 w r r r r r r w 5 5 w r r r r w 5 5 w r r r r m &.5.5.5.5.5.5.5.5.3.U D ",
"D U 3.5.5.5.5.5.5.5.5.-.V u u u u t 6 6 t u u u u t 6 6 t u u u u u u t 6 6 t u u u u t 6 6 t u u u u V -.5.5.5.5.5.5.5.5.3.U D ",
"D U 3.5.5.5.5.5.5.5.5.>. .} } } } [ q q [ } } } } [ q q [ } } } } } } [ q q [ } } } } [ q q [ } } } }  .>.5.5.5.5.5.5.5.5.3.U D ",
"D U 3.5.5.5.5.5.5.5.5.<...| | | | { e e { | | | | { e e { | | | | | | { e e { | | | | { e e { | | | | ..<.5.5.5.5.5.5.5.5.3.U D "
};
