/* XPM */
static char *result[] = {
/* columns rows colors chars-per-pixel */
"64 64 153 2 ",
"   c #010101",
".  c #090900",
"X  c #0A0A0C",
"o  c #100F06",
"O  c #131206",
"+  c #191700",
"@  c #191802",
"#  c #171608",
"$  c #181709",
"%  c #18180A",
"&  c #141415",
"*  c #17171D",
"=  c #17181B",
"-  c #1B1B1B",
";  c #28260F",
":  c #2B2908",
">  c #312F07",
",  c #302E0C",
"<  c #35330C",
"1  c #38360F",
"2  c #292710",
"3  c #292810",
"4  c #20201F",
"5  c #28271B",
"6  c #29281B",
"7  c #383611",
"8  c #3D3A13",
"9  c #3E3C1B",
"0  c #1D1D22",
"q  c #242424",
"w  c #2A2A2A",
"e  c #323225",
"r  c #2F3032",
"t  c #343436",
"y  c #333439",
"u  c #3D3D3D",
"i  c #413E13",
"p  c #403F39",
"a  c #424014",
"s  c #4F4B17",
"d  c #474419",
"f  c #524E17",
"g  c #534E1C",
"h  c #56511D",
"j  c #625E1C",
"k  c #64601F",
"l  c #444220",
"z  c #4B4927",
"x  c #47452F",
"c  c #4B4928",
"v  c #524F27",
"b  c #585323",
"n  c #5E5B22",
"m  c #56532B",
"M  c #494730",
"N  c #4B4A33",
"B  c #42423C",
"V  c #49483F",
"C  c #5D5A32",
"Z  c #625E24",
"A  c #605D34",
"S  c #666222",
"D  c #6A6426",
"F  c #66622A",
"G  c #6B642B",
"H  c #777327",
"J  c #7B772B",
"K  c #7C782C",
"L  c #6E6434",
"P  c #6E613D",
"I  c #706634",
"U  c #70643D",
"Y  c #7C7337",
"T  c #7C713D",
"R  c #3D3D43",
"E  c #4E3D44",
"W  c #503F46",
"Q  c #434343",
"!  c #4A4A4C",
"~  c #514047",
"^  c #5C4C45",
"/  c #5C5B44",
"(  c #57564A",
")  c #58584C",
"_  c #4C4D52",
"`  c #545455",
"'  c #5B5B55",
"]  c #525359",
"[  c #5B5B5C",
"{  c #645644",
"}  c #6A5D42",
"|  c #605F48",
" . c #6E6043",
".. c #736542",
"X. c #766943",
"o. c #63635D",
"O. c #5E5E62",
"+. c #636364",
"@. c #6B6B66",
"#. c #656569",
"$. c #6C6C6D",
"%. c #7A7A6E",
"&. c #6F6F73",
"*. c #6F7072",
"=. c #737374",
"-. c #75757B",
";. c #77787A",
":. c #7C7C7D",
">. c #847D31",
",. c #81763F",
"<. c #857B3D",
"1. c #897F3E",
"2. c #807540",
"3. c #8A852E",
"4. c #8E892E",
"5. c #8B813D",
"6. c #958D37",
"7. c #958E38",
"8. c #999237",
"9. c #979038",
"0. c #9A9239",
"q. c #A09A36",
"w. c #AAA439",
"e. c #8C8240",
"r. c #838383",
"t. c #868689",
"y. c #8E8E8C",
"u. c #92928F",
"i. c #8E8E91",
"p. c #959595",
"a. c #9A9A95",
"s. c #969699",
"d. c #9A9A9B",
"f. c #9F9FA1",
"g. c #A3A3A4",
"h. c #A6A6A9",
"j. c #AAAAAC",
"k. c #B0B0AF",
"l. c #AEAEB1",
"z. c #B3B3B3",
"x. c #BCBCBC",
"c. c #C0BFBE",
"v. c #C0C0BE",
"b. c #BFC0C1",
"n. c #C3C3C3",
"m. c #CBCBCB",
"M. c #D4D4D4",
"N. c #DBDBDB",
"B. c #E2E2E3",
"V. c #E7E7E8",
"C. c #EBEBEB",
"Z. c #F4F4F4",
"A. c #FCFCFC",
/* pixels */
"~ ~ ~ ~ ~ ~ ~ ~ ~ ~ ~ ~ W ~ ~ ~ ~ ~ ~ ~ ~ ~ ~ W ~ ~ ~ ~ W ] W W W W W W W ~ ~ ~ ~ ~ ~ ~ ~ ~ ~ ~ ~ ~ ~ ~ ~ ~ ~ ~ ~ ~ ~ ~ ~ ~ ~ ~ ",
"~ ~ ~ ~ ~ W ~ ~ ~ ~ ~ ~ ~ ~ ~ ~ ~ ~ ~ ~ W ~ ~ ~ ~ ~ ~ ~ ~ ~ W W W W W W W ~ W ~ ~ ~ ~ ~ ~ ~ ~ ~ ~ ~ ~ ~ ~ ~ ~ ~ ~ ~ ~ ~ ~ ~ ~ ~ ",
"~ ~ ~ W ~ ~ ~ ~ W ~ ~ ~ ~ ~ ~ ~ ~ W ~ ~ ~ ~ ~ ~ ~ ~ ~ ~ ~ ~ ~ ~ W W W W ~ ~ ~ ~ ~ ~ ~ ~ ~ ~ ~ ~ ~ ~ ~ ~ ~ ~ ~ ~ ~ ~ ~ ~ ~ ~ ~ ~ ",
"~ ~ ~ ~ ~ ~ ~ ~ ~ ~ ~ ~ ~ W ~ ~ ~ ~ ~ ~ ~ ~ ~ ~ ~ ~ W ~ ~ ~ ~ ~ W W W ] W ~ ~ ~ ~ ~ ~ ~ ~ ~ ~ ~ ~ ~ ~ ~ ~ ~ ~ ~ ~ ~ ~ ~ ~ ~ ~ ~ ",
"~ ~ ~ ~ W ~ ~ ~ ~ ~ ~ ~ ~ ~ ~ ~ ~ W ~ ~ ~ ~ ~ ~ ~ ~ ~ ~ ~ ~ W ~ ~ ~ W ~ ~ ~ ~ ~ ~ ~ ~ ~ ~ ~ W ~ ~ ~ ~ ~ ~ ~ ~ ~ ~ ~ ~ ~ ~ ~ ~ ~ ",
"~ ~ ~ ~ ~ ~ ~ W ~ ~ ~ W ~ ~ ~ ~ ~ ~ ~ ~ ~ ~ ~ ~ ~ ~ ~ ~ ~ W ~ ~ ~ ~ ~ ~ ~ ~ ~ W ~ ~ ~ ~ ~ ~ ~ ~ ~ ~ ~ W ~ ~ ~ ~ ~ ~ ~ ~ ~ ~ ~ ~ ",
"~ ~ ~ ~ ~ ~ ~ ~ ~ ~ ~ ~ ~ ~ W ~ ~ ~ ~ ~ ~ ~ ~ W ~ ~ ~ ~ ~ ~ ~ ~ ~ W ~ ~ W ~ ~ ~ ~ ~ ~ ~ ~ ~ W W W W W W ~ ~ ~ ~ ~ ~ ~ ~ ~ ~ ~ ~ ",
"W ~ ~ ~ ~ ~ ~ ~ ~ ~ ~ ~ ~ ~ ~ ~ ~ ~ ~ ~ W ~ ~ ~ ~ W ~ ~ ~ ~ ~ ~ ~ ~ ~ ~ ~ ~ ~ ~ ~ ~ ~ ~ ~ ~ W W W W W W W ~ ~ ~ ~ ~ ~ ~ ~ ~ ~ ~ ",
"~ ~ ~ ~ ~ ~ ~ ~ W ~ ~ ~ ~ ~ ~ ~ W W ^ W W W W W ~ ~ ~ ~ ~ ~ ~ ~ ~ ~ ~ W W ~ ~ ~ ~ ~ ~ ~ ~ ~ ~ W E E E E E ~ ~ ~ ~ ~ ~ ~ ~ ~ ~ ~ ",
"~ W ~ ~ ~ ~ ~ ~ ~ ~ ~ W ~ ~ ~ ~ W W W W W W W W ~ ~ ~ ~ ~ ~ ~ W ~ ~ ~ ~ ~ ~ ~ ~ W ~ ~ ~ ~ ~ W W E E E E E ~ E ~ ~ ~ ~ ~ ~ ~ ~ ~ ",
"~ ~ ~ ~ W ~ ~ ~ ~ ~ ~ ~ ~ ~ W ~ W W W W W W W W W ~ ~ ~ ~ ~ ~ ~ ~ W ~ ~ ~ ~ ~ ~ ~ ~ ~ W ~ W W W E E E E E ~ ~ ~ ~ ~ ~ ~ ~ ~ ~ ~ ",
"~ ~ ~ ~ ~ ~ ~ W ~ ~ ~ ~ ~ ~ ~ ~ W W W W W W W W W ~ ~ W ~ ~ ~ ~ ~ ~ ~ ~ W ] W ~ ~ ~ ~ ~ W W W W E E E E E ~ ~ ~ ~ ~ ~ ~ ~ ~ ~ ~ ",
"~ ~ W ~ ~ ~ ~ ~ ~ W ~ ~ ~ ~ ~ ! ^ ^ ^ ^ ^ ^ ^ W ~ ~ ~ ~ ~ ~ ~ ~ ~ ~ ~ ~ ~ ~ ~ ~ ~ W ~ ~ W ~ ~ W E E E E ~ ~ ~ ~ ~ ~ ~ ~ ~ ~ ~ ~ ",
"~ ~ ~ ~ ~ ~ ~ ~ ~ ~ ~ ~ ~ ~ ~ ^ {  .U ......A { ^ ~ ~ ~ ~ W ~ ~ ~ ~ ~ W W ~ ~ ~ ~ ~ ~ ~ ~ ~ ~ ~ E E E ~ ~ ~ ~ ~ ~ ~ ~ ~ ~ ~ ~ ~ ",
"~ ~ ~ ~ ~ ~ ~ ~ ~ ~ W ~ W W ^ { U <.1.1.1.1.2...{ ^ ~ ~ ~ ~ ~ ~ W ~ ~ ~ ~ ~ ~ W ~ ~ W ~ ~ W ~ ~ ~ ~ ~ ~ ~ ~ ~ ~ ~ ~ ~ ~ ~ ~ ~ ~ ",
"~ ~ ~ ~ ~ W ~ ~ ~ ~ W W W W ^ } ,.1.6.0.0.6.1.2.} ^ ~ ~ ~ ~ ~ ~ ~ ~ ~ ~ ~ ~ ~ ~ ~ ~ ~ ~ ~ ~ ~ ~ ~ ~ ~ ~ ~ ~ ~ ~ ~ ~ ~ ~ ~ ~ ~ ~ ",
"W _ ~ ~ ~ ~ ~ ~ W W ~ ^ ^ ^ { P Y >.3.3.3.3.>.Y A { ^ ^ W W ~ ~ ~ ~ ~ ~ ~ ~ ~ ~ ~ ~ ~ ~ ~ ~ ~ ~ ~ ~ ~ ~ ~ W ~ ~ ~ ~ ~ ~ ~ ~ W ~ ",
"W W ~ W ~ ~ ~ ~ W W ~ ^ {  .U I Z Z j j j j j Z L U  .{ ^ ^ ~ W ~ ~ ~ ~ ~ ~ ~ ~ ~ ~ ~ ~ ~ ~ ~ ~ ~ ~ ~ ~ ~ ~ ~ ~ ~ ~ ~ W ~ ~ ~ ~ ",
"W W W ~ ~ ~ W ~ W W ^ { X.2.,.G h i < > , < i h G >.,.X.{ ~ W ~ W ~ ~ ~ ~ ~ ~ ~ ~ ~ ~ ~ ~ ~ ~ ~ ~ ~ ~ ~ ~ ~ W W ~ ~ ~ ~ ~ ~ ~ ~ ",
"W W W W ~ ~ ~ ~ W W ^ ..2.2.3.G d ; $ o o $ ; d D >.5.,. .^ ~ ~ ~ ~ ~ ~ ~ ~ ~ ~ ~ ~ ~ ~ ~ ~ ~ ~ ~ ~ ~ ~ ~ ~ ~ W W ~ ~ ~ ~ W ~ ~ ",
"~ W W W ~ ~ ~ ] ^ ^ { U ,.>.K Z c e q 0 4 q e c A K >.Y U { ^ ^ ^ ^ ^ ^ ^ ^ ^ ^ ^ ^ ^ ^ ^ ^ ^ ^ W ] ~ ^ ^ ^ ^ ^ ^ ~ ^ ^ ~ ~ ~ ~ ",
"~ ] W W ~ ~ W ^ {  .U A D Z Z A / o.O.O.O.O.o.{ A Z Z D L P ....................................{ 2.2.2. .2.2.2.2.2. .{ ^ ~ ~ ~ ",
"~ W W W W W ^ { X.,.Y D f i l / %.p.h.l.l.h.p.%./ i i f Z ,.1.e.e.e.e.5.5.5.2.5.1.5.5.5.5.1.1.1.2.1.1.2.2.1.1.2.2.2.2.2.{ ^ ~ ~ ",
"~ ~ W W W W ^  .,.5.>.j i ; e ' y.b.N.V.V.N.c.y.' e ; 8 j >.6.0.0.7.7.7.7.0.0.7.7.7.7.7.7.6.6.6.0.1.0.0.0.1.0.0.0.0.2.2.{ ^ ~ ~ ",
"~ ~ ~ ~ W ^ { U ,.>.>.j l e u +.s.n.N.V.V.N.n.s.#.u e d Z J 3.4.3.3.3.3.3.3.3.3.3.3.3.3.3.3.3.3.3.3.3.3.3.3.3.3.1.>.>.,.P C ^ ~ ",
"~ ~ ^ ^ ^ P U I D D Z A | ' #.;.i.f.j.k.k.j.f.y.;.#.' ( C Z j j j j j j j j j j j j j j j j j j j j j j j j j Z S S G I L P  . .",
"W W ^ { U ,.,.G h d c { %.u.s.y.:.$.+.o.+.+.$.:.i.d.u.%./ l < > > < < < < < < < 1 > 1 , 1 < < < < < , 1 , < < 7 i i i b G ,.<.1.",
"W W ^  .,.1.>.j i 2 e [ p.c.n.f.$.u q = & q u $.d.v.v.a.o.e % O O # # $ $ $ $ $ $ $ $ # $ $ $ $ $ $ $ $ $ $ # o + O 2 i S 1.6.0.",
"W W ^ ..2.0.4.j < $ q [ f.m.M.f.o.q         q o.g.M.M.z.;.B q - 4 q q q q q q q q q q q q q q q q q q q q q 0 & X . o i S >.w.w.",
"W ~ ^ ..2.0.>.j < O 0 ] s.m.m.d.` =         & ` p.m.M.n.d.=.O.[ [ O.O.O.O.O.O.o.O.O.O.O.O.] [ O.[ O.O.O.O.O.! r * X o i S >.q.w.",
"~ ~ ^  .2.0.1.j < O - _ t.z.z.t.! &         & ! r.z.m.m.x.l.h.h.h.h.h.h.h.h.h.h.h.h.h.g.f.f.f.f.g.h.h.j.h.f.t.O.r & + < k >.q.w.",
"~ ~ ^ 2.2.w.6.j 1 # - Q ;.f.f.:.! =         = Q =.f.x.m.M.M.N.N.N.N.N.N.N.N.N.N.N.N.N.N.N.N.N.N.N.N.N.B.B.N.b.t.~ 0 + i k >.q.w.",
"W W ^ ..1.7.3.k < $ & R =.p.p.=.Q &         & u $.s.z.n.M.M.N.N.N.N.N.N.N.N.N.N.N.N.N.V.Z.A.A.Z.V.B.B.C.A.A.N.f.[ q $ < j 3.8.w.",
"W ^ ^ ..5.9.3.j < % & R *.p.p.=.Q &         & u $.p.l.z.l.j.h.h.h.h.h.h.h.h.h.g.h.j.x.M.C.A.A.C.m.x.x.M.Z.A.V.j.O.q # < j 3.q.w.",
"~ ~ ^ ..1.9.3.j < # & R *.s.p.=.Q &         & u =.a.g.d.r.#.O.[ [ O.O.O.O.O.O.[ [ #.:.h.M.A.Z.M.g.:.:.g.M.Z.C.l.#.q $ < j 3.q.w.",
"~ ~ ^  .1.7.3.Z 7 % = R *.p.p.=.Q &         & Q =.p.a.r.[ y q 4 q q q q q q q 4 - q Q :.x.N.N.k.=.Q B =.z.N.N.h.O.q $ < j 4.q.w.",
"~ ~ ^ } X.6.3.S a ; 6 B +.r.r.$.! w & # & & w ! $.r.r.@.N 6 $ o O @ $ $ % % O .     q ` p.x.x.i.( 0 0 _ u.x.b.i.` - # < j 3.q.w.",
"~ ~ ^ {  .T Y F h d l N ) O.#.O.` ! Q Q Q Q ! ` [ #.+.^ p i i > > < < < < < : + .   X t +.t.t.O.r X X r +.t.t.#.y & O 7 k 3.q.w.",
"~ ~ ^ ^ { } P I G D F m N E Q _ O.$.=.;.-.=.&.O._ E p x g b j j k k k k k k f < $     * y ! ! y =     * t _ ! y 0 X O 7 k 3.q.w.",
"W W W W ^ ^ { U Y >.K n i 6 w Q +.t.p.d.s.p.r.#.Q w 5 i j >.>.6.4.3.3.4.4.3.H h : O X X & - 4 & X . X X & - - & X X % 8 S 3.q.w.",
"~ ~ ~ ~ ~ ~ ^  .2.5.>.j i 2 q p +.e.p.d.f.p.r.+.p 6 2 i S >.0.0.8.6.7.0.0.7.>.D d ; # O O # % % # # # # # $ $ O o O 2 d F >.7.0.",
"~ ~ ~ ~ ~ ~ _ { X.2.,.D h a i M O.&.*.-.&.*.#.) p i i h G ,.1.2.5.5.1.e.e.5.Y I b d 8 7 < < < 7 7 8 8 8 1 < 1 1 7 8 d b G Y 1.2.",
"~ ~ ~ W ~ ~ ~ ^ {  .U U G Z Z m Q B R R R R B N b n S S L P P  .X.............L G D S S j j j S S S D S j j j j S S D G L P .. .",
"~ ~ ~ ~ ~ ~ ~ ~ ^ ^ { ..>.>.J Z l 4 - & & - 6 l b >.>.,.P P ^ ^ ^ ^ ^ ^ ^ ^ { P Y >.3.3.3.3.3.3.3.4.3.3.3.3.3.3.3.3.>.Y A { ^ ^ ",
"~ ~ ~ ~ ~ ~ ~ ~ W ~ ^  .,.5.>.G d ; $ X o # ; d D >.1.,.2.^ ~ ~ ~ ~ ~ ~ W ~ ^ } X.5.7.9.9.7.7.7.7.7.7.7.9.9.6.0.9.9.5.X.} ^ ~ ~ ",
"~ ~ ~ ~ ~ ~ ~ ~ W W ^ { T ,.,.Z h a 1 < < < 8 b G ,.,.2.^ ~ ~ ~ ~ ~ ~ ~ ~ ~ ~ { ..<.5.5.5.2.1.e.1.5.5.1.1.1.1.1.5.e.2...{ ~ ~ ~ ",
"~ ~ W ~ ~ ~ ~ ~ W W ^ ^ {  ...L F S k j j k S G P U  .{ ^ ~ ~ ~ ~ ~ ~ ~ ~ ~ ~ ^ } } ..X.X...............X.....X.X... .{ ^ ~ ~ ~ ",
"~ W ~ ~ ~ ~ ~ ~ W W W ~ ~ ^ A P Y >.3.3.3.3.>.Y  .{ ^ ^ ~ ~ W ~ ~ ~ ~ ~ ~ ~ ~ ^ ^ ^ ^ ^ ^ { ^ ^ ^ ^ ^ ^ ^ ^ ^ ^ ^ ^ ^ ^ ^ ~ ~ ~ ",
"~ ~ ~ ~ ~ ~ ~ ~ ~ ~ ~ ~ ~ ~ ^  .2.2.1.q.0.0.2.2. .^ ~ ~ ~ ~ ~ ~ ~ ~ W ~ ~ ~ ~ ~ ~ W ~ ~ W ~ W W ~ ~ ~ ~ ~ W ~ ~ ~ ~ ~ ~ ~ W ~ ~ ",
"~ ~ ~ ~ W ~ ~ ~ ~ ~ ~ ~ W ~ ~ {  .2.1.1.1.2.2.2.{ ~ ~ ~ ~ ~ ~ ~ ~ ~ ~ ~ ~ ~ W ~ ~ ~ ~ ~ ~ W W W ~ ~ ~ ~ ~ ~ ~ ~ ~ ~ ~ ~ ~ ~ ~ ~ ",
"~ ~ ~ ~ ~ ~ ~ ~ ~ ~ ~ ~ ~ ~ ~ ^ { 2.{ 2.2.2.{ { ^ ~ ~ ~ ~ ~ ~ ~ ~ ~ ~ ~ ~ ~ ~ ~ ~ ~ W ~ ~ ~ W W ~ ~ ~ ~ ~ ~ ~ ~ ~ W ~ ~ ~ ~ ~ ~ ",
"~ ~ ~ W ~ ~ ~ ~ W ~ ~ ~ W ~ W ^ ~ ^ ^ ] { ^ ^ ~ ^ ~ ~ ~ W ~ ~ ~ ] W ~ ~ W ~ ~ W ~ ~ ~ ~ ~ ~ ] W ~ ~ ~ ~ ~ ~ ~ ~ ~ ~ ~ ~ W ~ ~ ~ ",
"~ ~ ~ ~ ~ W ~ ~ ~ ~ ~ ~ ~ ~ ~ ~ ~ ~ ~ ~ ~ ~ ~ ~ ~ ~ ~ ~ ~ ~ ~ ~ W ~ ~ W ~ ~ ~ ~ ~ ~ ~ ~ W W W W ~ ~ ~ ~ ~ ~ ~ W ~ ~ ~ ~ ~ ~ ~ ~ ",
"~ ~ ~ ~ ~ ~ W ~ ~ ~ W ~ ~ ~ ~ ~ ~ ~ ~ ~ ~ ~ ~ ~ ~ ~ ~ ~ ~ ~ ~ ~ ~ ~ ~ ~ ~ W ~ ~ W ~ ~ ~ W W W W ~ ~ ~ ~ W ~ ~ ~ ~ ~ W ~ ~ ~ ~ ~ ",
"~ ~ ~ ~ ~ ~ ~ ~ ~ ~ ~ ~ ~ ~ ~ ~ ~ ~ ~ ~ ~ ~ ~ ~ ~ ~ ~ ~ ~ ~ ~ ~ ~ W ~ ~ ~ ~ ~ ~ ~ ~ ~ W W W ] W ~ W ~ ~ ~ ~ ~ ~ ~ ~ ~ ~ ~ ~ ~ ~ ",
"~ W ~ ~ ~ ~ ~ ~ ~ ~ ~ ~ ~ ~ W ~ ~ ~ ~ ~ ~ ~ ~ ~ ~ ~ ~ ~ ~ ~ W ~ ~ ~ ~ ~ ~ ~ ~ W ~ ~ ~ ~ W W W ~ ~ ~ ~ ~ ~ ~ ~ ~ ~ ~ ~ ~ ~ ~ W ~ ",
"W ~ ~ W ~ ~ ~ ~ ~ ~ ~ W ~ ~ ~ ~ ~ ~ ~ ~ ~ ~ ~ ~ ~ ~ ~ ~ ~ ~ ~ ~ ~ ~ ~ ~ ~ ~ W ~ ~ ~ ~ ~ ~ ~ ~ ~ ~ ~ ~ ~ ~ ~ W ~ ~ ~ W ~ ~ ~ ~ ~ ",
"~ ~ ~ ] ~ ~ ~ W W ~ ~ ~ ~ ~ ~ ~ ~ ~ ~ ~ ~ ~ ~ ~ ~ ~ ~ ~ ~ ~ ~ ~ ~ ~ ~ W ~ ~ ~ ~ W ~ ~ ~ ~ ~ ~ ~ ~ ~ ~ ~ ~ ~ ~ W W ~ ~ ~ ~ ~ ~ ~ ",
"~ ~ ~ W W ~ ~ ~ ~ ~ ~ ~ ~ ~ ~ ~ ~ ~ ~ ~ ~ ~ ~ ~ ~ ~ ~ ~ ~ ~ ~ ~ W ~ ~ ~ ~ ~ ~ ~ ~ ~ ~ ~ ~ ~ ~ ~ ~ ~ W ~ ~ ~ W W ~ ~ ~ ~ ~ ~ ~ ~ ",
"~ ~ ~ ~ ~ ~ ~ ~ ~ ~ ~ ~ ~ ~ W ~ ~ ~ ~ ~ ~ ~ ~ ~ ~ ~ ~ ~ ~ ~ W ~ ~ ~ ~ ~ ~ ~ W ~ ~ ~ ~ ~ W ~ ~ ~ ~ W ~ ~ ~ ~ W W ~ ~ ~ ~ ~ ~ ~ W ",
"~ ~ ~ ~ ~ ~ W ~ W W W W ~ ~ ~ ~ ~ ~ ~ ~ ~ ~ ~ ~ ~ ~ ~ ~ ~ ~ ~ ~ W ~ ~ ~ ~ W ~ ~ ~ ~ ~ ~ W W W ~ ~ ~ ~ ~ W _ W W ~ ~ ~ ~ ~ ~ ~ ~ ",
"~ W ~ ~ ~ ~ ~ ~ W W W ] ~ ~ W ~ ~ ~ ~ ~ ~ ~ ~ ~ ~ ~ ~ ~ W ~ ~ ~ ~ ~ ~ ~ ~ ~ ~ ~ ~ ~ W ~ W W _ ~ ~ ~ ~ ~ ~ ~ W W ~ ~ ~ ~ ~ ~ ~ W ",
"~ ~ ~ ~ ~ ~ ~ ~ W W ~ W W W _ W ~ ~ ~ ~ ~ ~ ~ ~ ~ ~ ~ ~ ~ ~ ~ W ~ ~ W ~ ~ ~ ~ ~ ~ ~ ~ W W W ~ ~ ~ ~ ~ ~ ~ ~ ~ ~ ~ ~ W ~ ~ ~ ~ ~ ",
"~ ~ ~ W W ~ ~ W W W W W W W W W ~ ~ ~ ~ ~ ~ ~ ~ ~ ~ ~ ~ ~ ~ ~ ~ ~ ~ ~ ~ ~ ~ W ~ ~ ~ ~ W W W ~ ~ ~ ~ ~ W ~ ~ ~ ~ ~ W ~ ~ ~ ~ ~ ~ "
};
