/* XPM */
static char *result[] = {
/* columns rows colors chars-per-pixel */
"64 64 223 2 ",
"   c #020406",
".  c #070608",
"X  c #0C0B0D",
"o  c #090609",
"O  c #1C0D0E",
"+  c #14090B",
"@  c #0F0D10",
"#  c #110F11",
"$  c #1B0F12",
"%  c #131215",
"&  c #1A1315",
"*  c #151619",
"=  c #1C161A",
"-  c #1C1A1D",
";  c #17191C",
":  c #0F1318",
">  c #211B1E",
",  c #271518",
"<  c #3C1214",
"1  c #3D1A1D",
"2  c #371516",
"3  c #2E0B0C",
"4  c #1B1D20",
"5  c #251E21",
"6  c #2E1D20",
"7  c #3C1E21",
"8  c #242325",
"9  c #2A2125",
"0  c #252528",
"q  c #2E2529",
"w  c #2B292C",
"e  c #262829",
"r  c #32272B",
"t  c #34292E",
"y  c #392529",
"u  c #2D2D31",
"i  c #362C31",
"p  c #392D32",
"a  c #2E3136",
"s  c #333236",
"d  c #3E3136",
"f  c #35353A",
"g  c #36383C",
"h  c #3B3A3E",
"j  c #3C3439",
"k  c #431415",
"l  c #441719",
"z  c #561D1E",
"x  c #661E1E",
"c  c #481E21",
"v  c #511E20",
"b  c #6E1F20",
"n  c #621F20",
"m  c #442B2F",
"M  c #4B272B",
"N  c #592528",
"B  c #44353C",
"V  c #47383E",
"C  c #48393F",
"Z  c #473438",
"A  c #55353A",
"S  c #4B2F2F",
"D  c #662021",
"F  c #692628",
"G  c #752627",
"H  c #622D31",
"J  c #673437",
"K  c #78373B",
"L  c #6D4229",
"P  c #3B3D42",
"I  c #373F43",
"U  c #4D3C43",
"Y  c #413E44",
"T  c #513F46",
"R  c #5C3E44",
"E  c #6A3D42",
"W  c #763D41",
"Q  c #3B4146",
"!  c #3B4348",
"~  c #454549",
"^  c #4A464C",
"/  c #4B494E",
"(  c #414145",
")  c #514047",
"_  c #57474C",
"`  c #4D4C52",
"'  c #444C51",
"]  c #564C52",
"[  c #54545A",
"{  c #5B5B5C",
"}  c #555458",
"|  c #4E5153",
" . c #644146",
".. c #695855",
"X. c #7E4E53",
"o. c #5C5B62",
"O. c #555B61",
"+. c #625E66",
"@. c #5D6369",
"#. c #636165",
"$. c #65636A",
"%. c #686B6D",
"&. c #78656C",
"*. c #626D74",
"=. c #6C6C74",
"-. c #736E76",
";. c #716F78",
":. c #667279",
">. c #75737B",
",. c #78767B",
"<. c #84292A",
"1. c #962C2C",
"2. c #9D2E2E",
"3. c #812F31",
"4. c #893639",
"5. c #923536",
"6. c #9D3334",
"7. c #933739",
"8. c #A33334",
"9. c #AC3333",
"0. c #A63C3D",
"q. c #AB3C3D",
"w. c #B23434",
"e. c #9D5227",
"r. c #BC5639",
"t. c #AC513C",
"y. c #C96636",
"u. c #C16029",
"i. c #C35E33",
"p. c #863D40",
"a. c #8A4245",
"s. c #9D4A4C",
"d. c #9A4447",
"f. c #85555A",
"g. c #975559",
"h. c #92534F",
"j. c #A2494B",
"k. c #B94D4F",
"l. c #B6554A",
"z. c #B25551",
"x. c #BB6C4C",
"c. c #925E62",
"v. c #8F5B62",
"b. c #956066",
"n. c #996768",
"m. c #8A747C",
"M. c #8F7A7B",
"N. c #927C7C",
"B. c #8F6C73",
"V. c #A57463",
"C. c #AC7072",
"Z. c #8E614D",
"A. c #C25940",
"S. c #C97972",
"D. c #C16F5C",
"F. c #B5867B",
"G. c #7A7B84",
"H. c #6E7880",
"J. c #827C85",
"K. c #8A7C84",
"L. c #957A81",
"P. c #7C828A",
"I. c #77838B",
"U. c #7F8A93",
"Y. c #84838C",
"T. c #89858D",
"R. c #8A8C8D",
"E. c #848A93",
"W. c #8B8992",
"Q. c #888891",
"!. c #938D94",
"~. c #86959E",
"^. c #8C939D",
"/. c #8F9396",
"(. c #97979B",
"). c #99868D",
"_. c #A69592",
"`. c #8797A0",
"'. c #8E96A1",
"]. c #8B99A2",
"[. c #939BA5",
"{. c #929BA5",
"}. c #95A2AC",
"|. c #9BA3AA",
" X c #97A6B0",
".X c #98A6B1",
"XX c #9AABB5",
"oX c #9CAEB9",
"OX c #97A8B2",
"+X c #9EB1BB",
"@X c #A3A3A4",
"#X c #A9AAAA",
"$X c #A3B4BD",
"%X c #ACB4B8",
"&X c #BBBABB",
"*X c #B0A8AE",
"=X c #D48181",
"-X c #CB8D8F",
";X c #D2A5A2",
":X c #EBBCBC",
">X c #AAB9C2",
",X c #A7B9C3",
"<X c #F0BFC0",
"1X c #B7C3CA",
"2X c #BCC9D0",
"3X c #C7C9CA",
"4X c #D6C6C6",
"5X c #C2CED4",
"6X c #C5D1D7",
"7X c #C6D2D8",
"8X c #CDD7DD",
"9X c #DCDCDC",
"0X c #D1D6D9",
"qX c #D4CED1",
"wX c #DCE3E6",
"eX c #E2E2E2",
"rX c #E3EAED",
"tX c #E8EAEB",
"yX c #F5E6E6",
"uX c #ECF1F4",
"iX c #F2F4F5",
"pX c #F7F9FA",
"aX c #DBD0D3",
/* pixels */
") ) ) ) ) ) ) ) ) ) ) ) ) ) ) ) T T U t 5 @ .               X = i U T T T T ) ) ) ) ) ) ) ) ) ) ) ) ) ) ) ) ) ) ) ) ) ) ) ) ) ) ",
") ) ) ) ) ) ) ) ) ) ) ) ) ) ) ) T T Y t 5 @ . o . . . . o o # 5 t Y T U T T ) ) ) ) ) ) ) ) ) ) ) ) ) ) ) ) ) ) ) ) ) ) ) ) ) ) ",
") ) ) ) ) ) ) ) ) ) ) ) ) ) ) ) T T Y t 5 @ o o + O O O O O , 6 y B U U T T ) ) ) ) T T ) ) ) ) ) ) ) ) ) ) ) ) ) ) ) ) ) ) ) ) ",
") ) ) ) ) ) ) ) ) ) ) ) ) ) ) ) U U U t = @ + O 3 < l l l k < 1 7 t i B U T ) ) ) T T T ) ) ) ) ) ) ) ) ) ) ) ) ) ) ) ) ) ) ) ) ",
") ) ) ) ) ) ) ) ) ) ) ) ) ) ) ) T T U r 4 @ @ 3 c n b G b b n v 1 5 6 r j U T T T T T T T T T T ) ) T T T T T ) ) ) ) ) ) ) ) ) ",
") ) ) ) ) ) ) ) ) ) ) ) ) ) ) ) T T U r 4 # O 2 z <.1.2.2.2.<.n < , 4 5 p U T T T T T _ T T T U ) ) T T T T T T ) ) ) ) ) ) ) ) ",
") ) ) ) ) ) ) ) ) ) ) ) ) ) ) ) T T U t 5 & , < n <.1.8.9.q.7.F c O @ = q d Y Y Y Z B U Y U U U T T T T T T _ T ) ) ) ) ) ) ) ) ",
") ) ) ) ) ) ) ) ) ) ) ) ) ) ) ) T U U P i 6 6 7 z b G 4.p.j.a.J 7 + . # 4 6 r y t r r r r r i d Y U T T T T T T ) ) ) ) ) ) ) ) ",
") ) ) ) ) ) ) ) ) ) ) ) ) ) ) ) T T T Y Y p t 7 1 < v J f.f.f. .y #   o # & = = - = > = = = 5 u p U U U T T ) ) ) ) ) ) ) ) ) ) ",
") ) ) ) ) ) ) ) ) ) ) ) ) ) ) ) T T T T U U B r , , 6 Z ..&.&.] s = o o o @ # # # # # # # % & 6 t Z U U T T ) T ) ) ) ) ) ) ) ) ",
") ) ) ) ) ) ) ) ) ) ) ) ) ) ) ) T T T U U U d r 5 4 0 Y } -.-.+.~ u 4 = 4 4 4 4 4 4 4 4 4 4 4 0 t B Y U U T T T ) ) ) ) ) ) ) ) ",
") ) ) ) ) ) ) ) ) ) ) ) ) ) ) ) T T T U m t r w u i P ] +.,.G.=.o.' ! I ! P ! I ! I ! P ! P I I s t i m Y U T T ) ) ) ) ) ) ) ) ",
") ) ) ) ) ) ) ) ) ) ) ) ) ) ) ) T T U d r 5 5 u P ^ O.+.>.G.G.G.H.:.:.*.*.*.*.*.*.*.*.*.*.*.@.' P q 5 r p U T T ) ) ) ) ) ) ) ) ",
") ) ) ) ) ) ) ) ) ) ) ) ) ) ) ) T U U r 5 & 4 i ^ +.-.G.J.J.Y.Y.E.^.`.`.`.`.`.`.`.`.`.].].`.I.@.P 4 & 5 r U T T ) ) ) ) ) ) ) ) ",
") ) ) ) ) ) ) ) ) ) ) ) ) ) U T U U d r 5 4 0 Y o.G.K.W.T.T.W.^.[. XXXoXXXoXXXXXXXXXXXoX+XXX`.*.P 4 : = r U ) ) ) ) ) ) ) ) ) ) ",
") ) ) ) ) ) ) ) ) ) ) ) ) U U U B p t u r i P ] =.T.^.'.^.W.^.{. XXXoX+X+XoX+X+XoX+X+X,X,X+X`.*.P 4 @ = u U ) ) ) ) ) ) ) ) ) ) ",
") ) ) ) ) ) ) ) ) ) ) ) ) ) U d r 9 9 u h / +.=.Y.^.[.}.[.{.[.}.OXoXoX+XoX+XoXoXoXoX+X+X$XoX`.*.P 4 : 4 r V T ) ) ) ) ) ) ) ) ) ",
") ) ) ) ) ) ) ) ) ) ) ) ) ) C i 5 * 4 i ^ +.,.Y.^.}.OXOXOX.XOXXXXXXXoXXXoXoXXXXXoXoX+X+X$XoX`.:.I 4 + = r V ) ) ) ) ) ) ) ) ) ) ",
") ) ) ) ) ) ) ) ) ) ) ) ) ) U r = # * s [ >.Q.'.}..XoX+X$X$X>X>X>X>X>X>X>X>X>X>X,X,X>X1X>X>X|.:.~ 4 : = t V ) ) ) ) ) ) ) ) ) ) ",
") ) ) ) ) ) ) ) ) ) ) ) ) ) V r = # = g o.J.'.|.OXXX$X,X1X2X5X6X6X6X7X7X7X7X6X6X7X7X7X8X8X7X%XI.` 5 + = t V ) ) ) ) ) ) ) ) ) ) ",
") ) ) ) ) ) ) ) ) ) ) ) T ^ B r & @ 4 P @.E.[.XXXXoX$X1X6X0XeXtXrXrXrXrXrXrXrXrXrXrXrXuXuXrX3X/.O.0 # = t V ) ) ) ) ) ) ) ) ) ) ",
") ) ) ) ) ) ) ) ) ) ) ) T U U t = # 4 I *.~..XXXoXoX$X3X8XtXiXiXiXiXiXiXiXiXiXiXiXiXiXiXiXuX0X/.[ 0 % = r V ) ) ) ) ) ) ) ) ) ) ",
") ) ) ) ) ) ) ) ) ) ) ) T T V t = # 4 I *.`.XXoXoXoX$X5XwXiXpXiXtXeX9X9X0X9X9X9X9X9X9XeXwX9X>XF.[ 8 # = t V ) ) ) ) ) ) ) ) ) ) ",
") ) ) ) ) ) ) ) ) ) ) ) T T B r > # 4 ! *.`.XX,XoXoX>X5XrXpXiXeX3X#X@X(.@X@X@X@X@X@X#X#XoX].F.#.h - # - r V ) ) ) ) ) ) ) ) ) ) ",
") ) ) ) ) ) ) ) ) ) ) ) ) ) V t = # 4 P *.`.oX+X+XoX,X6XrXiXtX3X(.-.{ } } { { { #.#.#.%.{ { | h 9 % # = t C ) ) ) ) ) ) ) ) ) ) ",
") ) ) ) ) ) ) ) ) ) ) ) ) ) V t = # 4 ! *.~.XX+XoXoX,X6XrXiXeX%X,.~ e 8 e e e e e e e e w e e - % X # - t C ) ) ) ) ) ) ) ) ) ) ",
") ) ) ) ) ) ) ) ) ) ) ) ) ) V t = # 4 P *.~..XoXXXoX>X7XrXiXeX&X,.( e e e e e - : X X % 4 e e - % X # > t C ) ) ) ) ) ) ) ) ) ) ",
") ) ) ) ) ) ) ) ) ) ) ) ) ) B t = @ 4 P $.W.[.XXXXoX>X7XrXiXtX4X@X,.{ { { { | g ; . X 4 h | | I e : # = t C ) T ) ) ) ) ) ) ) ) ",
") ) ) ) ) ) ) ) ) ) ) ^ T T V t > # ; g o.G.'.[. XXX>X7XrXpXiXeX3X#X@X@X@X@XF.O.a % : g %.R.R.%.Q 4 # > t B ^ T ) ) ) ) ) ) ) ) ",
") ) ) ) ) ) ) ) ) ) ) ) T T V t = # ; i [ H.Q.'.[..X,X5XwXuXpXpXtXeX9XeXeX9X&XU.| 8 8 | /.&X&X/.} 8 # = t V T T ) ) ) ) ) ) ) ) ",
") ) ) ) ) ) ) ) ) ) ) ) ) ) C r = # & u ^ +.H.Y.^.}.$X1X0XtXtXyXyXyXyXyXyXeX3X_...S S .._.4X4X!...e # = t B ) ) ) ) ) ) ) ) ) ) ",
") ) ) ) ) ) ) ) ) ) ) ) ) ) C t > X @ 5 p ^ +.=.P.^.}.%X1X3XqXqX4X:X:X<X<X:X;XF.Z.L L Z.F.;X;XN._ 5 + > t V ) ) ) ) ) ) ) ) ) ) ",
") ) ) ) ) ) ) ) ) ) T T T U U r 4 @ X % 4 r P O.H.J.'.|.XX*X*X;X;X=X=X=X=X=XS.x.t.e.e.l.x.S.S.f.A & # = r Y T T T T T T T T T T ",
") ) ) ) ) ) ) ) ) ) T T T U U t 5 # o o @ 4 5 Y o.G.K.W.'.'.L.L.V.x.k.k.k.k.l.l.u.u.u.u.A.z.p.K c $ @ > r U T T T T T T _ T T T ",
") ) ) ) ) ) ) ) ) ) T T T T U t 5 & @ o   . & t ] &.K.L.L.K.B.c.s.j.0.0.0.0.t.r.y.y.y.y.r.t.7.n 1 $ + 5 t Y T T T T T T T T ] T ",
") ) ) ) ) ) ) ) ) ) T T T T U Y t 5 4 # o . @ y R f.c.c.v.g.g.g.h.s.d.d.p.d.d.l.x.x.x.x.z.s.e.A 1 $ @ = t U T T T T T T T T T T ",
") ) ) ) ) ) ) ) ) ) ) ) ) ) T Y Y t q 5 @ + + 1 H p.s.j.s.s.s.g.g.f.v.v.c.v.c.b.V.V.V.V.n.c.X.R y # # 5 r U T T T T T T T T ] T ",
") ) ) ) ) ) ) ) ) ) ) ) ) ) T T U U m 5 * @ $ 1 F 5.0.q.q.0.j.g.c.B.m.m.L.m.m.M.M.M.M.N.N.m.&.] i & # = 6 U T T T T T T T T T T ",
") ) ) ) ) ) ) ) ) ) ) ) ) ) ) ) R R U y 5 + $ 1 G p.0.q.q.0.j.g.B.L.T.Q.Q.T.T.T.T.T.T.W.W.Y.>.[ P % @ = t U U T T ] T T T T T T ",
") ) ) ) ) ) ) ) ) ) ) ) ) ) ) E E E E c , $ $ 7 J a.s.j.k.j.g.c.L.!.'.{.'.'.'.^.'.'.'.{.'.^.G.O.P : @ = t Y U T T T ] T T T T T ",
") ) ) ) ) ) ) ) T T _ T T T T E W p.3.N 2 $ $ t R f.v.c.c.c.B.L.!.[..X.X X X}.}. X}.}..X X[.U.@.P 4 # = r U T T T T T T T T T ] ",
") ) ) ) ) ) ) ) T T T T ) T E W p.p.3.n < $ & i _ &.m.K.L.L.K.W.'.[..XXXOXOX X X X X.XXXXX X~.*.P 5 # = r U T T T T T T T T T T ",
") ) ) ) ) ) ) ) T T T T T R E p.8.8.1.b k O * u [ =.J.K.K.J.J.Q.E.~.^.`.`.~.].~.~.`.].[. X XE.*.P 4 @ = r Y T T T T T T T T T T ",
") ) ) ) ) ) ) ) _ T T R E E W p.8.9.1.b k $ 4 a [ H.E.W.J.Q.E.G.H.:.:.*.:.:.*.*.*.:.H.I.'.].E.*.P 4 @ & r U T T T T ] T T T T T ",
") ) ) ) ) ) ) ) T T T E W 4.7.6.9.9.1.b k O & u [ ;.J.W.W.T.G.=.O.' ! Q Q ! ! Q I Q ' @.G.E.J.o.P 4 @ = r U U T ] T T T T T T T ",
") ) ) ) ) ) ) ) T T R E 4.5.8.9.9.8.1.b < O 4 a [ -.J.K.T.J.-.+.! w 4 * - 4 - * ; 4 u ~ $.>.-.o.a * @ = q Y U T T T T T T ] T T ",
") ) ) ) ) ) ) ) T T R W 4.6.9.w.w.9.1.b k O & u [ -.J.K.J.-.+.] p 5 $ o o o o X @ * 0 P [ +.+./ i = % 5 r U T T T T T T ` T T T ",
") ) ) ) ) ) ) ) T T E W p.8.9.w.w.9.1.b k O 4 a [ -.J.>.=.o./ A M l < 3 + . o # 4 w f Y ^ ` / Y w 5 = 5 r Y Y T T T T T T T T T ",
") ) ) ) T T T T T T E W 4.8.w.w.w.9.1.b k O & a O.>.G.$.[ P p M z x x k 3 + @ 4 P ^ ` T Y P a 6 5 5 5 r t p B U U U T T T T T T ",
") ) ) ) T T T T T _ R E 4.6.9.w.w.9.1.b k O 4 a [ -.-.+.P 6 5 c b <.<.n 3 O * u ^ +.$.[ P 5 4 4 5 q r r t p p B U U T T T T T T ",
") ) ) ) T T T T T U T E 3.1.2.8.8.6.<.n < O * u ` +.+.] a 4 $ l b 3.3.n < O * u ^ o.+.] i 4 # & 4 r r i t i t B B U U U ) ) T T ",
") ) ) ) T T T U T U U H J K 3.3.3.3.G v 3 + : 5 P ^ T P w = , 1 F G G z 2 O : 5 P ` ` P r & * 5 5 r t i t t t p p B U U T T ) T ",
") ) ) ) ) ) U U U Z Z Z A N H H J H N 7 $ + @ * 4 u i w 5 5 6 7 M N N c , + X & 0 i a r w 5 5 5 r t t i t t t i p p B B U U T T ",
") ) ) ) ) ) U U m p p y m m m m m m y 6 = @ . @ : * = 4 5 5 q p p m p 6 = @ o @ : : 4 4 5 6 r r t t t t t t t t p p i B U U T T ",
") ) ) ) ) ) T Y d i t t t i t i t t r 5 = + @ o o X # & 5 q i t t i q 5 $ @ @ X o @ @ = 5 r t t t t t t t t t t y t i B Y T T ^ ",
") ) ) ) ) ) T Y d t t t t i i i p t r 5 5 = % @ + : & 5 q i t p p i r 6 5 4 # + : @ $ 5 5 t t i t t t t t t t t r r t p U T T T ",
") ) ) T T U U U d p t t t t t t p t r r 5 5 5 5 5 5 5 5 r r t p i t r q 6 5 5 5 4 5 5 5 r i t t i t t t t t i r r r t d Y U U T ",
") ) ) T T U U Y d p t t t t i t r p t r r r r q 5 6 r r r t t t i t t t u q r 6 6 r 6 r r t t t t t t t t t t r r i i d U U T T ",
") ) T T T T T U B p t t i t t t t t t r i r i r t t t t t t t t t t t t t t i u t t t t t t t t t t t t r i y r i i d d U T T T ",
") ) T T T T T U U d d p i i t t t t t i i t i i p i t p t t r t t t t t t t t t t p t t i t t t t t t r t t p p d d B U U T T T ",
") ) ) ) T T T T U U U d p t t t t t t i t t p t t t p t t t t t t t t t t i i t t t t p t t t t t t t t t t t i d B U T U T T T ",
") ) ) ) T T ) ) U U Y m B i t t r i t t t t t t t t t t t t t t t t t t t i t p t t t t t i t r t t t t r t i B B U U T U T T T ",
") ) ) ) T T T T U T U U m p t t t r p r t t t t t t t t t t t t t t t t t t t t t t t t t t t i t t t t t t t B Y U ) ) ) ) T T ",
") ) ) ) T T T T T T T Y B i t t t t r t t t t t t t t t t t t t r t t t t t t t t t t t t t t t t t t r r t p p U U ) ) ) ) ) ) "
};
