/* XPM */
static char *result[] = {
/* columns rows colors chars-per-pixel */
"64 64 10 1 ",
"  c #514047",
". c #513F46",
"X c #503F46",
"o c #503E45",
"O c #4F3E45",
"+ c #4F3D44",
"@ c #4E3C44",
"# c #4D3B43",
"$ c #503E46",
"% c white",
/* pixels */
"                                                                ",
"                                                                ",
"                                                                ",
"                                                                ",
"                                                                ",
"                                                                ",
"                                                .XX.            ",
"                                               XoOOoX           ",
"                                              .o+@@+o.          ",
"                                              XO@##@OX          ",
"                    .XX.                      XO@##@OX          ",
"                   XoOOoX                     .o+@@+o.          ",
"                  .o+@@+o.                     XoOOoX           ",
"                  XO@##@OX                      .XX.            ",
"                  XO@##@OX                                      ",
"                  .o+@@+o.                                      ",
"                   XoOOoX                                       ",
"                    .XX.                                        ",
"                                                                ",
"                                                                ",
"                                                                ",
"                                                                ",
"                                                                ",
"                                                                ",
"                                                                ",
"                                                                ",
"                                    .XX.                        ",
"                                   XoOOoX                       ",
"                                  .o+@@+o.                      ",
"                                  XO@##@OX                      ",
"                                  XO@##@OX                      ",
"                                  .o+@@+o.                      ",
"                                   XoOOoX                       ",
"                                    .XX.                        ",
"                    .XX.                                        ",
"                   XoOOoX                                       ",
"                  .o+@@+o.                                      ",
"                  XO@##@OX                                      ",
"                  XO@##@OX                  .XX.                ",
"                   $+@@+o.                 XoOOoX               ",
"                   X$OOoX                 .o+@@+o.              ",
"                    .XX.                  XO@##@OX              ",
"                .XX.                      XO@##@OX              ",
"               XoOO$X                     .o+@@+o.              ",
"              .o+@@+$                      XoOOoX               ",
"              XO@##@OX                      .XX.                ",
"              XO@##@OX                                          ",
"              .o+@@+o.                                          ",
"               XoOOoX                                           ",
"                .XX.                                            ",
"                                                                ",
"                                                                ",
"                                                                ",
"                                                                ",
"                                                                ",
"                                                                ",
"                                                                ",
"                                                                ",
"                                                                ",
"                                                                ",
"                                                                ",
"                                                                ",
"                                                                ",
"                                                                "
};
