/* XPM */
static char *result[] = {
/* columns rows colors chars-per-pixel */
"64 64 30 1 ",
"  c #323A4C",
". c #353E50",
"X c #374153",
"o c #394356",
"O c #3C465A",
"+ c #3F495E",
"@ c #3F4A60",
"# c #424D63",
"$ c #445067",
"% c #465269",
"& c #49556C",
"* c #4A5771",
"= c #4C5972",
"- c #4F5D78",
"; c #505D76",
": c #515F7A",
"> c #54617C",
", c #566481",
"< c #5A6781",
"1 c #5A6986",
"2 c #5B6A89",
"3 c #606F8D",
"4 c #62718E",
"5 c #657493",
"6 c #687795",
"7 c #697897",
"8 c #6B7B9B",
"9 c #6F7FA0",
"0 c #6F80A0",
"q c #7181A2",
/* pixels */
"                           o+#++XX                              ",
"........................ ..O+##+XXXX XX ........................",
"O+OO+O+++O+O+OO+O+O+O+O+OO++####+OOOOOOOOOOOOOOO+OOOOOOOO+O+O+OO",
"&&&&&&&=&&&&&&&&&*&&&&&&&&&&$$$$&&&&&&&&&*&&*&&=&&&=&&&&&&&&&&&&",
"<<>3>>>>3>>>>>>3<1<<1,,,>3>;&&%&;>>>>>>>1<<1<1<,3>>3>>>3>>>>>>>3",
"556577666777776655555665664>;&&;>676867q555565556666686697767767",
"0q09988807887980888888799963;&&>470007q0799988998888888899899q99",
"qqqq98888888887788888899qq83>&&>>0qq088897778777788788888788qqqq",
"q999855566555655555555799q84>=&>6qqq966664554555555554556667999q",
"9987533233322222222322358874:&&;>q07773>33333323223333334>347899",
"87532,,,:><<,,,,<<<>,,12444>;%%;>444>>>>,,::,,,,,,,,,,><>>334486",
"<<,:-***&&*&***-;::;==*->>>=%++%;>>>;;;&***=***;:::;**&&=&=;>>3>",
"&%%$###########$&&&&%+##%%%+OoOO$$&$$++##+#####$%**%$##+++##$&%&",
"OOOOOo.O.O.o.OO@#%%#+OOOO+OOooooOOOOOOoOO..OO.OO#$$#+OOoOOOOOOOO",
"OOOOOOOO#OOOOOO#+##+++OOOOOO+OOOOOOOOOOOOO+OOO+#####O+OOOOOOOOOO",
"&%&&&&&&&&&&&&%$%#%#%&&&&&&&&&&%&&&&&&&&&&&&&&%%$$#$$&&&&&&&&&&&",
"3:>>3>>>,,11<<>;*%%&;>>3,,1,,2<<<<<<1,,,><<<<<:=*$%&*:>3>>>>>>>>",
"666666795356753>;&%;>66655555555565556657677584<=&&;336777669769",
"8999999899799973:&&:3789959988888888889788899863;&&-379998888998",
"9999787775999983:&&>37qq995988888858885978899983:**:389998787777",
"9999755455599973>&&;3909953555534555555564589973:*&:489895556345",
"9997633322257863>&&>>886532222222222222223357972:&&:378733223333",
"988541<<22256752>&&>3677522,22121222,22112246762:&&:3676522111<<",
"7665331122235631;&&;>466322222211222222212255551;&&;>66532211113",
"555332222222533,;&&=<34532222222222222222123352,-&&-,25332222222",
"222221111222222,=%%=:12222122212112211121122221,*%%*,2232222222,",
",,,,,,,,,,,,,,,=&$$&;:>>,,,,,,,,,,,,,,,,,,,,,,,*%$#%*,,,,,,,,,,,",
"**************%%@++@%&=;**==-::-=***%***=**=**%%##@#$&*=********",
"@@###@#########OOooOO+++@@#$&**&%###@@@####$####.@.####$####@@@@",
"@.#...O.O.@.O.O.XoXooooO.Oo##$$##OO..@@..OO..O...........O.O.@.@",
"@O@O#OOOOOOOOOOOO+O+OO+O@O@######.OOO@@@OOOO#OOOOO#OO#OO#OOO.@@@",
"%%%%&&*&*&&&&&*&&&&&&&&&*%%$$#$$%&*%%&%%&&&&&&&&&*&*&&&&&&%**&%%",
">1>11,,,1>1111,1<<<><<<<>>>;&%%&;,<<<>3>,,1,,1<<<<<<1,,1<<<<<><<",
"566557736555555366756655004>;%&;<3677666555655757666546555656656",
"008088790888889907700770000>;&&:37899888995988888888799788889999",
"qq00089777877759770777000004>&&:38998877595988857877975988889qqq",
"qq0895554555553555545467006>>&&:379986445555555545555535555689qq",
"q088532232222222232222450003:&=:2679633322222222322222222235789q",
"888542121112122112212234404>:&&:267752112,1122211211222222255889",
"8665322211122221212112244663-&&-,5653221122122212211222111235667",
"55532222221222222222,222552>-%&=,2452222222222222122221122224555",
"222221122211112122222222222>=&&-,1222222211111121222222211122222",
",,>,,,,,>,,,,,,,,,,2,,,,>,>=&@@=*:,,,,,,,,,,,,,<,,,,,,,,,,,,,,,,",
"*******==**=*===-------@**&%@@@@%**************==,::************",
"@@#@@@@$@$@@@@@%%-*-@@@@@@@+OooO@@###@##@@#####%%***$###@@#@@@@@",
"OOoOooOooOooOo++@%@@@@o@ooOooXXX.ooOO.oO@.ooo.o#@%%@#oooOOoo.@@o",
"OOOOOOOOOOOO+O++@%%@@O@OOO+OOOOO@OOO@OOOOOOOOO++$@@@#OOOOOOOOOo@",
"&&%&&&&*&&&&&&&%%@@@%%*%&&&&&*&&&&&&&&&&*%*&*&%%$$$%$%&&&**%*%*%",
"<<<<1,<<<<>3>>>>&$%&;>;>>>>>,,<><<<><<1,>>>>>>>:*%%*>>>>3>>>>>>>",
"655555655565866>;&%;>00>00005450666565550404004>*%&=>4787666078q",
"9989888888890073-&&:>00000000050007007980000000>>&&:189008880708",
"qqq9988586800073>=&:0000000>50606507777906000002>&&:380q88787768",
"qq98855555688074:&&>10000>5455555555554535500043:&&>389885554446",
"0086532212358863:&&>12000432222222222222>3440051>&&:268854223333",
"988542211114776>:&&:1002>3>122111211112221240502:&&;3586521111>3",
"6665322212336643-&%->204433122112121111111242021;&&;<45532112111",
"5533221122234421=&%->30122221222222,22,21222442,-&@-,24432222222",
"222222122,12221,=%%=:1232,222211222222222222221-=&&-,22222,22,2,",
",2,11,,1,,1,1,,=*%%*->112,1,,,>1,2,,,,,,,,,122,-&@%*-,,11,,,,,,,",
",-::::::::-,,--*%%%&*--:,-,--->:---,-,-,>->>---*&&&@*-::,-,--,,,",
"@--****===*=*=**%@%%%*==*=*===**-:=-@-**=====-%=@@*@&*=*====****",
"*@*@%%%%%%%%@%%$%%%@%%%%@**@&=%%@@@=@-@@&&@&&@&=&@@*%&%%@%%*@*%%",
"*@@@$$@$@$$$$%@$$@@%@@%%@%@@%@@=@=*@@@*@@&&@@@%@@%@*%@%@@*%@%%@@",
"@@*@$@$$$@@$@@$@%@%%@%@%@%@%@&@@@@@@**@@%@@@&@@@&@%@%@@%@@%@@@@%"
};
